# xmcd CD database file
#
# Track frame offsets:
#	150
#	22893
#	49231
#	70477
#	87517
#	112178
#	133393
#	154704
#	175010
#	198280
#	216579
#	234089
#	259342
#	277379
#	298631
#	320020
#	342606
#
# Disc length: 4796 seconds
#
# Revision: 0
# Processed by: cddbd v1.5.2PL0 Copyright (c) Steve Scherf et al.
# Submitted via: CDex 1.82
#
DISCID=1812ba11
DTITLE=Oscar D' Leon - El Sonero del Mundo CD2
DYEAR=2008
DGENRE=Salsa
TTITLE0=Hechicera
TTITLE1=Yo quisiera
TTITLE2=El Manicero
TTITLE3=A El
TTITLE4=Parampanpan
TTITLE5=Detalles
TTITLE6=Que se sienta
TTITLE7=Mi Negra esta cansada
TTITLE8=El Baile del Suavecito
TTITLE9=Monta mi Caballo
TTITLE10=Me voy pa Cali
TTITLE11=Desde que te fuiste
TTITLE12=Esa Mujer es una Bomba
TTITLE13=Ardiente Deseo
TTITLE14=Hazme el Amor
TTITLE15=Zapata viejo
TTITLE16=Poco Poco
EXTD=YEAR: 2008
EXTT0=
EXTT1=
EXTT2=
EXTT3=
EXTT4=
EXTT5=
EXTT6=
EXTT7=
EXTT8=
EXTT9=
EXTT10=
EXTT11=
EXTT12=
EXTT13=
EXTT14=
EXTT15=
EXTT16=
PLAYORDER=
